<?xml version="1.0" encoding="utf-8" ?><svg xmlns="http://www.w3.org/2000/svg" xmlns:xlink="http://www.w3.org/1999/xlink" width="1024" height="1024" viewBox="0 0 1024 1024"><path fill="#F4F1EB" d="M0 0L1024 0L1024 1024L0 1024L0 0Z"/><path fill="#4F6654" d="M572.526 361.678C577.524 361.27 582.554 361.712 587.404 362.985C599.691 366.288 607.32 373.65 613.484 384.474C592.746 382.404 588.911 395.597 582.219 411.639C573.506 433.236 564.924 454.809 555.88 476.269C548.201 494.491 539.568 502.996 519.639 506.472C500.541 507.08 489.017 501.027 478.113 485.402C486.684 486.488 495.483 485.231 501.017 477.771C505.725 471.424 508.118 462.358 511.127 455.015C516.841 441.072 522.419 427.04 528.069 413.069C533.365 401.23 536.898 387.944 543.932 377.046C545.04 375.327 548.008 372.632 549.566 371.306C556.325 365.556 563.842 362.761 572.526 361.678Z"/><path fill="#4F6654" d="M361.928 575.429C386.701 571.62 409.87 588.623 413.666 613.398C417.462 638.173 400.448 661.333 375.671 665.116C350.912 668.897 327.773 651.898 323.979 627.141C320.186 602.383 337.173 579.236 361.928 575.429Z"/><path fill="#F4F1EB" d="M367.657 590.071C384.259 589.455 398.24 602.367 398.943 618.966C399.647 635.564 386.808 649.613 370.213 650.402C353.495 651.198 339.319 638.243 338.611 621.521C337.903 604.799 350.932 590.692 367.657 590.071Z"/><path fill="#73B06A" d="M607.137 389.121C610.053 388.909 612.853 389.379 615.75 389.748C619.789 398.741 623.855 410.555 627.394 419.926C632.109 432.18 636.935 444.391 641.871 456.557C650.79 478.787 656.671 498.739 681.438 506.663C671.517 506.792 661.484 506.73 651.554 506.745C644.402 506.808 637.263 506.842 630.114 506.751C603.77 506.414 597.691 486.069 589.186 465.218L576.073 432.988C581.057 427.196 587.281 404.547 592.954 397.502C597.383 392.001 600.426 390.235 607.137 389.121Z"/><path fill="#4F6654" d="M447.109 361.677C453.889 361.226 460.683 362.325 466.975 364.89C484.753 372.292 489.656 389.555 496.775 405.842C502.111 417.739 507.275 429.711 512.267 441.757C509.756 448.399 507.178 455.102 504.542 461.689C499.432 474.459 494.189 482.779 479.022 480.405C472.695 478.795 468.95 466.712 466.365 460.888L447.789 417.997C440.725 401.895 435.238 381.313 413.404 384.414C420.625 371.159 432.09 363.246 447.109 361.677Z"/><path fill="#73B06A" d="M349.055 505.3C373.558 494.087 380.225 467.597 389.346 444.24L403.968 407.312C405.014 404.609 406.241 401.496 407.263 398.778C410.543 390.046 412.177 386.066 422.36 389.514C431.104 392.475 434.68 399.095 438.345 406.919C442.144 415.022 445.311 424.315 449.517 432.074L434.381 468.948C431.132 476.781 428.201 486.148 423.111 492.97C419.482 497.835 414.379 501.908 408.763 504.232C397.491 508.899 364.056 506.444 350.009 506.595L349.055 505.3Z"/><path fill="#4F6654" d="M274.322 574.174C283.755 573.373 293.185 576.499 300.041 583.055C313.713 596.128 311.267 615.168 311.261 632.385C311.236 643.152 311.289 653.92 311.421 664.686C306.481 664.865 301.083 664.732 296.107 664.707C296.248 653.214 296.329 641.72 296.349 630.226C296.375 615.743 298.373 589.436 276.641 589.33C252.516 589.212 254.414 616.137 254.447 633.02L254.539 664.62C249.811 664.75 244.733 664.61 239.977 664.564L240.021 623.75C240.094 614.049 240.458 601.751 233.286 594.497C223.301 583.514 202.593 590.578 200.47 604.926C197.694 623.683 198.8 645.688 198.899 664.694C193.988 664.711 188.93 664.581 184.007 664.518L184.072 575.992C188.693 575.939 193.487 575.673 198.117 575.481L198.82 585.489C213.262 568.118 237.418 571.262 248.933 590.026C249.741 588.901 250.573 587.794 251.428 586.704C257.594 578.942 264.637 575.326 274.322 574.174Z"/><path fill="#4F6654" d="M532.283 574.597C553.229 572.978 569.321 581.473 576.95 601.996C579.803 609.671 579.937 616.174 579.977 624.312C559.877 623.277 532.323 624.005 511.75 624.139C513.655 653.804 547 661.13 563.602 639.198C563.925 638.645 564.213 638.404 564.651 637.922C568.188 637.465 575.294 637.641 579.142 637.575C577.961 640.821 577.048 643.038 575.193 645.993C569.05 655.794 559.26 662.75 547.982 665.327C536.767 667.768 525.042 665.591 515.45 659.287C483.456 638.613 491.741 583.07 532.283 574.597Z"/><path fill="#F4F1EB" d="M533.638 589.093C550.538 587.493 560.415 596.263 564.405 611.866C557.897 612.075 550.687 611.933 544.125 611.932C533.811 611.953 522.174 612.231 511.971 611.7C514.401 599.726 521.367 591.623 533.638 589.093Z"/><path fill="#4F6654" d="M804.279 574.687C816.401 573.959 829.471 576.257 837.397 586.396C840.999 591.004 841.589 595.535 842.207 601.063L827.095 601.072C824.534 589.237 816.721 588.366 806.238 588.224C798.607 588.121 789.198 592.279 790.456 601.144C791.951 611.681 812.788 611.637 820.94 613.895C831.55 616.372 843.729 621.843 844.697 634.523C846.517 658.341 829.98 664.846 810.419 666.367C790.884 666.567 774.924 659.496 772.337 638.166L787.169 637.959C788.336 643.346 788.325 643.655 792.766 647.851C801.447 656.054 832.929 653.706 829.432 637.528C826.115 622.184 795.608 628.336 784.178 618.347C774.11 609.549 772.921 596.035 781.383 584.865C786.917 577.778 796.017 575.605 804.279 574.687Z"/><path fill="#4F6654" d="M633.452 574.222C642.454 574.313 650.437 576.258 656.958 583.024C670.151 596.712 668.05 614.955 668.006 632.425L667.858 664.743C663.016 664.919 657.866 664.781 652.999 664.734C653.153 646.592 653.356 626.742 652.225 608.673C651.134 591.263 635.407 584.133 619.724 592.246C604.71 603.618 607.39 620.761 607.441 637.628L607.454 664.695C602.534 664.725 597.471 664.611 592.539 664.562C593.172 635.18 592.588 605.343 592.632 575.885L606.46 575.906C606.694 579.64 606.652 583.927 606.698 587.713C614.953 578.619 621.225 574.938 633.452 574.222Z"/><path fill="#4F6654" d="M410.422 575.554L426.483 575.608C427.648 578.866 429.101 582.564 430.495 585.714C438.967 604.863 445.768 626.185 455.347 644.702C464.206 621.7 473.192 598.747 482.306 575.844C487.707 576.065 493.116 575.98 498.508 575.591C496.706 580.307 494.829 584.994 492.875 589.649C482.506 614.432 472.745 640.164 462.066 664.639L447.248 664.566C443.708 654.881 437.987 642.252 433.876 632.438C425.937 613.527 418.119 594.565 410.422 575.554Z"/><path fill="#4F6654" d="M690.512 552.36L705.501 552.418L705.531 575.619L730.617 575.583L730.677 589.043L705.492 589.023C705.5 607.445 704.786 626.301 706.079 644.593C706.703 646.811 708.794 649.393 710.741 650.354C718.071 653.973 725.208 650.105 731.783 647.79L731.969 649.875C732.006 653.668 731.993 657.46 731.93 661.253C722.285 668.355 703.026 667.636 695.324 657.841C688.799 649.542 690.514 636.829 690.511 626.781L690.409 588.891L676.368 588.971L676.256 575.623L690.484 575.669L690.512 552.36Z"/><path fill="#4F6654" d="M745.775 575.571L760.849 575.685L760.885 664.492C755.872 664.715 750.585 664.565 745.547 664.508C745.711 634.826 745.376 605.316 745.775 575.571Z"/><path fill="#4F6654" d="M750.138 545.37C755.179 544.006 760.373 546.976 761.756 552.011C763.139 557.047 760.19 562.253 755.159 563.655C750.102 565.065 744.861 562.096 743.471 557.033C742.08 551.97 745.07 546.741 750.138 545.37Z"/><path fill="#959E87" d="M350.009 506.595C349.694 506.604 346.281 506.894 346.343 506.262C346.955 505.653 348.208 505.476 349.055 505.3L350.009 506.595Z"/></svg>