<?xml version="1.0" encoding="utf-8" ?><svg xmlns="http://www.w3.org/2000/svg" xmlns:xlink="http://www.w3.org/1999/xlink" width="1024" height="1024" viewBox="0 0 1024 1024"><path fill="#4F6654" d="M0 0L1024 0L1024 1024L0 1024L0 0Z"/><path fill="#F4F1EB" d="M532.033 377.734C548.757 373.067 575.557 367.753 591.415 376.701C620.977 393.383 618.457 470.333 652.631 492.122C657.633 495.312 663.359 497.058 669.207 495.248C669.82 495.058 669.854 495.027 670.354 494.798L670.605 495.625C667.674 497.123 664.702 498.543 661.694 499.881C645.867 506.776 627.688 509.454 611.261 503.086C586.504 493.563 581.089 468.848 573.132 446.454C566.009 426.409 560.161 401.779 546.134 385.347C543.454 382.208 539.843 380.251 536.091 378.769C534.024 378.9 532.046 378.946 529.981 379.142L529.697 378.358C530.664 378.047 531.043 377.913 532.033 377.734Z"/><path fill="#C2C0C1" d="M529.697 378.358C530.664 378.047 531.043 377.913 532.033 377.734C533.555 378.525 534.422 378.403 536.091 378.769C534.024 378.9 532.046 378.946 529.981 379.142L529.697 378.358Z"/><path fill="#F4F1EB" d="M419.685 380.169C446.779 371.651 482.44 361.976 498.986 392.934C512.705 418.602 522.719 493.071 555.246 499.58L555.092 500.979C534.616 506.34 499.414 510.738 484.56 491.682C478.731 484.203 474.9 472.848 471.668 463.844C468.363 454.691 465.131 445.512 461.971 436.308C456.241 419.377 445.083 373.83 420.559 381.166L419.685 380.169Z"/><path fill="#F4F1EB" d="M374.935 569.022C398.028 565.749 419.402 581.82 422.668 604.914C425.934 628.009 409.857 649.377 386.761 652.636C363.676 655.894 342.319 639.825 339.054 616.741C335.789 593.656 351.852 572.294 374.935 569.022Z"/><path fill="#4F6654" d="M378.254 580.182C418.349 577.697 419.734 636.773 384.55 641.647C376.18 641.954 369.304 640.914 362.361 635.492C349.298 625.292 348.39 602.209 358.681 589.814C364.098 583.289 370.117 580.923 378.254 580.182Z"/><path fill="#F4F1EB" d="M426.744 384.289C444.544 395.186 450.166 412.018 457.955 430.746C449.696 454.585 439.49 489.147 415.274 501.114C397.331 509.982 372.466 506.987 354.762 498.554L355.914 497.755C388.851 501.349 401.37 445.006 409.738 421.932C414.075 409.976 419.923 394.948 426.744 384.289Z"/><path fill="#F4F1EB" d="M535.289 569.184C546.423 567.195 561.901 570.763 570.172 578.839C580.433 588.858 581.5 600.797 581.835 614.28C558.713 614.682 534.805 614.425 511.637 614.443C511.991 617.348 512.319 619.49 513.105 622.325C519.127 644.061 550.019 648.868 563.633 631.554C565.191 629.283 565.862 627.484 566.928 624.982L579.968 624.965C578.225 629.922 576.386 634.768 573.223 639.019C560.58 656.092 530.056 657.577 513.919 645.089C496.509 631.616 494.293 600.732 507.721 583.739C514.859 574.707 524.05 570.523 535.289 569.184Z"/><path fill="#4F6654" d="M537.611 580.18C555.69 578.834 565.415 586.424 568.28 604.489C559.585 604.705 550.594 604.641 541.875 604.686C531.88 604.795 521.885 604.809 511.89 604.731C514.124 589.661 522.749 581.822 537.611 580.18Z"/><path fill="#F4F1EB" d="M296.75 568.71L297.247 568.707C328.962 568.775 327.613 592.96 327.578 616.277L327.504 651.506L315.081 651.574C314.995 640.372 314.967 629.169 314.996 617.966C315.059 602.665 318.127 579.946 296.492 579.872C270.968 579.784 273.027 601.736 273.002 619.119L272.945 651.463L261.185 651.488C261.004 635.642 260.94 619.795 260.992 603.948C261.054 597.191 260.57 590.464 255.72 585.253C248.287 577.187 234.12 578.332 226.549 585.614C217.081 594.721 218.988 610.424 219.032 622.523L219.021 651.493L207.016 651.5C206.799 624.551 206.784 597.6 206.971 570.651L218.914 570.608C219.014 574.148 218.982 577.887 219.01 581.445C228.632 571.004 237.933 566.401 252.55 569.875C260.474 571.758 265.361 576.37 269.381 583.207C270.367 581.892 271.396 580.61 272.468 579.364C279.123 571.674 287.017 569.342 296.75 568.71Z"/><path fill="#F4F1EB" d="M535.28 383.211C550.696 389.485 561.194 423.063 567.926 436.644L568.35 437.49C565.101 448.946 555.228 481.554 549.775 490.823C533.24 481.538 522.428 451.406 516.084 434.166C519.587 421.466 528.398 394.354 535.28 383.211Z"/><path fill="#F4F1EB" d="M783.327 568.721C801.81 569.222 813.782 575.631 815.804 595.791C811.83 595.678 807.702 595.807 803.714 595.874C801.866 586.229 798.552 581.314 788.079 580.113C781.055 579.308 772.426 579.085 767.288 585.075C765.334 587.383 764.412 590.391 764.739 593.398C766.427 607.869 800.726 602.857 810.414 613.508C814.825 617.393 817.205 622.64 817.312 628.552C817.67 648.175 799.771 652.704 784.54 653.024C764.464 652.425 754.267 646.416 750.516 625.472C754.932 625.485 759.018 625.497 763.439 625.769C766.46 640.416 775.073 642.289 788.5 642.059C796.027 641.93 805.429 637.838 804.649 628.953C803.675 617.859 788.986 617.53 780.725 615.44C768.757 613.129 753.409 609.626 752.295 594.754C750.813 574.969 767.695 569.693 783.327 568.721Z"/><path fill="#F4F1EB" d="M627.107 569.149C642.804 566.893 659.707 572.95 663.555 590.049C665.706 599.603 664.981 610.517 664.929 620.368L664.848 651.52L653.041 651.515C652.903 633.354 654.008 613.013 651.728 595.232C649.898 580.965 633.859 578.475 622.287 581.316L621.856 581.512C603.934 589.504 606.247 606.479 606.324 622.818L606.481 651.433L593.909 651.316C594.302 624.465 593.833 597.6 594.264 570.706C598.088 570.564 602.259 570.662 606.115 570.682L606.166 582.778C612.425 574.72 616.605 570.886 627.107 569.149Z"/><path fill="#F4F1EB" d="M484.972 570.58C489.157 570.541 493.351 570.763 497.533 570.938C496.878 573.521 496.053 576.082 495.271 578.632C486.385 602.899 478.407 627.188 469.962 651.605L451.795 651.52C444.03 628.918 435.591 606.553 427.856 583.941C426.57 580.18 424.188 574.956 423.523 571.283L424.328 570.725L436.378 570.784C444.9 592.11 453.63 620.493 460.786 642.417C461.719 639.064 462.883 635.263 464.071 632.008C471.427 611.851 477.417 590.597 484.972 570.58Z"/><path fill="#F4F1EB" d="M685.112 547.933L697.355 547.973L697.317 571.009L714.896 570.777L714.846 580.985C709.059 581.015 703.127 580.895 697.328 580.835L697.366 617.051C697.367 620.165 696.616 637.466 698.909 639.439C701.577 641.736 711.343 640.839 715.404 640.689L715.397 647.99C715.449 649.522 715.558 649.86 715.121 651.344C711.363 653.096 691.501 651.887 688.568 647.801C683.549 640.81 684.862 627.377 684.849 618.916L684.786 580.894L672.011 581.013L671.982 570.764L684.999 571.087L685.112 547.933Z"/><path fill="#F4F1EB" d="M727.698 570.519L739.986 570.489L740.034 624.176C740.04 631.383 740.424 644.761 739.825 651.496L727.945 651.495C727.578 624.363 727.859 597.618 727.698 570.519Z"/><path fill="#F4F1EB" d="M732.658 541.556C737.344 540.7 741.836 543.803 742.694 548.489C743.552 553.174 740.45 557.668 735.765 558.527C731.077 559.387 726.581 556.283 725.723 551.596C724.865 546.908 727.97 542.413 732.658 541.556Z"/><path fill="#767A71" d="M678.106 490.215C675.286 492.976 674.186 494.055 670.605 495.625L670.354 494.798C672.012 493.305 676.057 491.354 678.106 490.215Z"/><path fill="#767A71" d="M352.304 497.746C351.747 497.486 346.964 495.3 347.36 494.45C348.149 494.464 351.879 496.297 352.68 496.759L352.304 497.746Z"/><path fill="#C2C0C1" d="M555.246 499.58C557.115 499.266 558.891 499.216 560.678 498.923C558.447 499.755 557.49 500.268 555.092 500.979L555.246 499.58Z"/><path fill="#4F6654" d="M529.981 379.142C529.413 379.345 525.652 380.457 525.435 379.725C525.786 378.759 528.807 378.422 529.697 378.358L529.981 379.142Z"/><path fill="#C2C0C1" d="M419.685 380.169L420.559 381.166C419.917 381.345 416.349 382.667 415.909 382.22L415.916 382.148C416.351 382.15 416.163 382.17 416.483 382.116L416.537 381.645C416.6 381.613 416.663 381.581 416.726 381.548L417.617 381.132C418.323 380.795 418.972 380.491 419.685 380.169Z"/><path fill="#C2C0C1" d="M352.68 496.759C353.684 497.082 355.037 497.388 355.914 497.755L354.762 498.554C353.772 498.18 353.327 498.037 352.304 497.746L352.68 496.759Z"/></svg>