<svg xmlns="http://www.w3.org/2000/svg" width="1515" height="195" viewBox="155 350 1515 195">
<path fill="#1F6B4E" fill-rule="evenodd" d="M0 0 C2.448 2.17 4.773 4.418 7.086 6.73 C7.707 7.269 8.329 7.808 8.969 8.363 C19.871 18.092 27.169 35.118 28.309 49.557 C29.139 71.588 25.994 91.352 10.773 108.168 C-3.505 123.161 -23.39 132.778 -44.171 133.907 C-75.266 134.45 -75.266 134.45 -88.914 129.73 C-89.989 129.368 -91.064 129.006 -92.172 128.633 C-110.616 121.675 -125.64 107.951 -134.227 90.293 C-141.919 72.546 -143.378 52.22 -136.664 33.918 C-135.78 31.841 -134.865 29.778 -133.914 27.73 C-133.494 26.809 -133.074 25.887 -132.641 24.938 C-126.063 11.763 -116.439 2.23 -103.914 -5.27 C-103.106 -5.759 -102.298 -6.249 -101.465 -6.754 C-71.285 -23.355 -27.38 -21.324 0 0 Z M-106.227 22.918 C-116.142 34.666 -119.645 50.041 -118.703 65.105 C-116.786 80.15 -110.13 93.142 -98.164 102.605 C-81.749 114.125 -61.554 117.08 -41.945 114.227 C-26.197 111.178 -12.397 104.401 -2.633 91.375 C6.12 77.908 8.18 62.374 5.765 46.64 C4.938 42.83 3.645 39.295 2.086 35.73 C1.735 34.927 1.385 34.124 1.023 33.297 C-5.213 20.802 -15.976 11.74 -28.914 6.918 C-31.238 6.161 -33.571 5.429 -35.914 4.73 C-36.318 4.607 -36.318 4.607 -38.363 3.98 C-62.258 -2.024 -89.192 5.301 -106.227 22.918 Z " transform="translate(540.9140625,378.26953125)"/>
<path fill="#1F6B4E" fill-rule="evenodd" d="M0 0 C0.341 2.155 0.341 2.155 0.293 4.789 C0.283 5.73 0.274 6.671 0.264 7.641 C0.239 8.625 0.213 9.61 0.188 10.625 C0.181 11.121 0.181 11.121 0.146 13.633 C0.111 16.089 0.062 18.544 0 21 C-4.184 19.623 -8.357 18.236 -12.492 16.719 C-32.187 9.623 -57.188 5.54 -76.984 14.324 C-80.71 16.375 -83.443 18.312 -86.125 21.625 C-87.777 27.998 -88.092 34.27 -85.625 40.438 C-74.674 51.128 -56.325 52.2 -41.908 54.797 C-25.048 57.849 -7.439 61.056 3.82 75.242 C10.048 84.522 10.059 96.228 9 107 C6.549 117.353 0.31 125.416 -8.5 131.25 C-32.702 144.72 -64.972 142.268 -90.757 135.205 C-94.2 134.219 -97.597 133.118 -101 132 C-101.5 131.847 -101.5 131.847 -104.031 131.07 C-106.329 130.249 -108.105 129.533 -110 128 C-111 124.823 -111.118 123.234 -111 120 C-111.01 118.801 -111.021 117.602 -111.031 116.367 C-111.059 112.91 -111.044 109.457 -111 106 C-106.013 106.668 -101.794 108.778 -97.25 110.812 C-75.04 120.469 -47.806 124.454 -24.547 116.121 C-19.754 114 -17.001 111.274 -14 107 C-12.947 103.84 -12.8 101.445 -12.75 98.125 C-12.724 97.096 -12.698 96.068 -12.672 95.008 C-13.17 90.446 -14.848 88.014 -18.26 85.01 C-28.148 77.755 -41.095 76.43 -52.875 74.5 C-83.382 69.481 -83.382 69.481 -96 61 C-96.623 60.595 -97.245 60.19 -97.887 59.773 C-104.069 55.187 -107.739 47.875 -109.645 40.508 C-111.3 28.829 -109.842 17.921 -102.875 8.188 C-92.138 -4.393 -75.733 -9.513 -59.691 -10.836 C-41.307 -11.957 -15.831 -10.554 0 0 Z " transform="translate(1651,372)"/>
<path fill="#1F6B4E" fill-rule="evenodd" d="M0 0 C3.99 3.887 7.677 7.969 11.312 12.188 C11.601 12.521 11.601 12.521 13.061 14.211 C16.753 18.504 20.357 22.853 23.863 27.301 C26.607 30.767 29.397 34.196 32.188 37.625 C32.74 38.304 33.293 38.984 33.862 39.684 C35 41.083 36.139 42.482 37.277 43.881 C38.989 45.986 40.7 48.093 42.41 50.199 C47.791 56.827 53.18 63.447 58.59 70.051 C63.742 76.355 68.869 82.679 74 89 C78.006 87.665 79.557 85.007 82 81.75 C85.722 76.895 89.512 72.139 93.5 67.5 C97.283 63.085 100.933 58.591 104.5 54 C108.501 48.851 112.634 43.846 116.875 38.895 C120.188 35.007 123.366 31.033 126.5 27 C131.812 20.168 137.37 13.57 143 7 C143.328 6.609 143.328 6.609 144.988 4.633 C146.303 3.07 147.647 1.531 149 0 C149.33 0 149.66 0 150 0 C152.348 23.582 154.466 47.182 156.534 70.79 C156.975 75.82 157.418 80.849 157.862 85.878 C159.688 106.578 161.465 127.276 163 148 C156.07 148 149.14 148 142 148 C140.707 136.784 139.571 125.586 138.708 114.329 C138.521 111.899 138.331 109.468 138.14 107.038 C137.667 101.023 137.2 95.008 136.733 88.993 C136.335 83.859 135.935 78.725 135.53 73.592 C135.343 71.204 135.16 68.815 134.977 66.426 C134.862 64.969 134.748 63.511 134.633 62.053 C134.534 60.784 134.436 59.515 134.335 58.207 C134.071 55.684 133.716 53.424 133 51 C128.276 56.202 123.744 61.503 119.387 67.016 C116.363 70.796 113.274 74.521 110.188 78.25 C105.321 84.137 100.538 90.078 95.842 96.101 C92.325 100.608 88.716 105.033 85.082 109.445 C81.986 113.244 78.984 117.113 76 121 C73.024 119.69 71.235 118.414 69.223 115.867 C68.716 115.234 68.209 114.601 67.687 113.949 C67.151 113.264 66.615 112.58 66.062 111.875 C64.9 110.416 63.737 108.958 62.574 107.5 C61.982 106.752 61.389 106.005 60.779 105.234 C58.543 102.427 56.275 99.647 54.004 96.868 C49.463 91.312 44.975 85.721 40.562 80.062 C35.191 73.175 29.637 66.442 24.066 59.715 C23.538 59.074 23.01 58.433 22.465 57.773 C21.181 56.219 19.886 54.673 18.59 53.129 C17 51 17 51 17 49 C16.34 49 15.68 49 15 49 C15.028 49.946 15.057 50.892 15.086 51.866 C15.408 68.69 13.956 85.449 12.74 102.215 C12.502 105.531 12.27 108.848 12.038 112.164 C11.759 116.155 11.475 120.146 11.191 124.137 C11.139 124.884 11.086 125.631 11.032 126.401 C10.881 128.529 10.727 130.656 10.573 132.784 C10.486 133.988 10.399 135.192 10.31 136.432 C9.974 140.298 9.481 144.149 9 148 C2.07 148 -4.86 148 -12 148 C-11.332 135.829 -10.462 123.688 -9.474 111.539 C-9.215 108.358 -8.959 105.178 -8.703 101.997 C-8.25 96.368 -7.795 90.738 -7.339 85.109 C-6.615 76.16 -5.892 67.211 -5.172 58.261 C-4.998 56.102 -4.824 53.942 -4.649 51.783 C-3.84 41.757 -3.033 31.732 -2.335 21.698 C-2.288 21.018 -2.241 20.339 -2.192 19.639 C-1.985 16.639 -1.784 13.639 -1.592 10.638 C-1.559 10.142 -1.559 10.142 -1.392 7.636 C-1.34 6.801 -1.287 5.967 -1.233 5.107 C-1 3 -1 3 0 0 Z " transform="translate(177,362)"/>
<path fill="#1F6B4E" fill-rule="evenodd" d="M0 0 C3.686 -0.292 7.369 -0.469 11.062 -0.625 C11.582 -0.667 11.582 -0.667 14.209 -0.879 C21.77 -1.119 21.77 -1.119 25.088 1.899 C26.952 4.514 28.488 7.168 30 10 C31.043 11.733 32.09 13.463 33.141 15.191 C34.18 16.98 35.216 18.77 36.25 20.562 C40.567 27.956 45 35.231 49.697 42.389 C53.698 48.497 57.576 54.678 61.438 60.875 C65.977 68.16 70.53 75.437 75.125 82.688 C79.797 90.063 84.396 97.481 88.978 104.912 C93.778 112.678 98.673 120.381 103.595 128.07 C104.157 128.948 104.718 129.826 105.297 130.73 C105.795 131.508 106.294 132.286 106.808 133.087 C109.268 137.035 109.129 140.305 109.098 144.852 C109.096 145.626 109.095 146.4 109.093 147.197 C109.088 149.673 109.075 152.149 109.062 154.625 C109.057 156.302 109.053 157.979 109.049 159.656 C109.038 163.771 109.021 167.885 109 172 C106.021 169.196 103.785 166.369 101.602 162.914 C100.964 161.912 100.327 160.91 99.671 159.877 C98.996 158.804 98.321 157.731 97.625 156.625 C96.549 154.929 95.474 153.233 94.398 151.538 C93.302 149.809 92.209 148.078 91.116 146.348 C88.583 142.341 86.035 138.343 83.486 134.347 C80.651 129.902 77.825 125.451 75 121 C74.485 120.189 73.97 119.377 73.439 118.542 C67.179 108.676 60.989 98.77 54.851 88.829 C50.825 82.315 46.751 75.833 42.654 69.364 C36.713 59.978 30.836 50.552 24.954 41.129 C22.968 37.949 20.981 34.771 18.992 31.594 C15.324 25.732 11.66 19.867 8 14 C7.528 13.244 7.056 12.488 6.57 11.709 C5.398 9.828 4.23 7.946 3.062 6.062 C2.455 5.084 1.848 4.106 1.223 3.098 C0 1 0 1 0 0 Z " transform="translate(599,364)"/>
<path fill="#1F6B4E" fill-rule="evenodd" d="M0 0 C0.948 0.021 1.896 0.042 2.872 0.063 C3.386 0.07 3.386 0.07 5.988 0.103 C7.059 0.136 8.131 0.17 9.236 0.204 C10.319 0.222 11.403 0.24 12.519 0.259 C15.196 0.306 17.872 0.372 20.548 0.454 C19.387 3.487 18.165 6.3 16.474 9.071 C16.061 9.749 15.649 10.426 15.224 11.124 C14.774 11.851 14.324 12.579 13.861 13.329 C13.622 13.718 13.622 13.718 12.413 15.687 C7.803 23.144 2.983 30.461 -1.834 37.786 C-5.828 43.888 -9.676 50.052 -13.389 56.329 C-18.506 64.978 -23.879 73.443 -29.317 81.893 C-33.933 89.07 -38.498 96.276 -43.014 103.517 C-43.62 104.486 -44.226 105.456 -44.851 106.456 C-47.77 111.133 -50.679 115.817 -53.567 120.514 C-54.606 122.202 -55.648 123.887 -56.69 125.573 C-58.005 127.701 -59.314 129.832 -60.618 131.966 C-61.208 132.919 -61.797 133.871 -62.405 134.853 C-62.922 135.695 -63.44 136.537 -63.972 137.405 C-65.452 139.454 -65.452 139.454 -68.452 141.454 C-70.161 139.093 -71.844 136.718 -73.514 134.329 C-74 133.664 -74.485 132.999 -74.985 132.313 C-77.115 129.231 -78.417 127.276 -78.577 123.478 C-77.033 119.329 -74.833 115.88 -72.389 112.204 C-71.289 110.506 -70.19 108.807 -69.093 107.106 C-68.503 106.196 -67.913 105.286 -67.305 104.348 C-64.009 99.201 -60.83 93.98 -57.639 88.767 C-52.409 80.241 -47.142 71.74 -41.827 63.267 C-36.977 55.531 -32.185 47.762 -27.452 39.954 C-22.442 31.692 -17.378 23.465 -12.264 15.267 C-11.628 14.244 -10.992 13.222 -10.337 12.169 C-9.742 11.218 -9.147 10.266 -8.534 9.286 C-8.01 8.448 -7.487 7.61 -6.947 6.746 C-6.701 6.368 -6.701 6.368 -5.452 4.454 C-5.003 3.702 -4.554 2.951 -4.092 2.177 C-2.452 0.454 -2.452 0.454 0 0 Z " transform="translate(794.451904296875,363.5458984375)"/>
<path fill="#1F6B4E" fill-rule="evenodd" d="M0 0 C37.95 0 75.9 0 115 0 C115 6.27 115 12.54 115 19 C83.98 19 52.96 19 21 19 C21 33.19 21 47.38 21 62 C47.4 62 73.8 62 101 62 C101 68.27 101 74.54 101 81 C74.6 81 48.2 81 21 81 C21 95.85 21 110.7 21 126 C52.35 126 83.7 126 116 126 C116 132.6 116 139.2 116 146 C77.72 146 39.44 146 0 146 C0 97.82 0 49.64 0 0 Z " transform="translate(865,364)"/>
<path fill="#1F6B4E" fill-rule="evenodd" d="M0 0 C4.296 1.074 5.436 2.033 8.562 5 C12.097 8.28 15.679 11.417 19.438 14.438 C24.214 18.301 28.739 22.379 33.258 26.539 C35.9 28.91 38.607 31.153 41.375 33.375 C46.17 37.241 50.667 41.347 55.159 45.554 C59.395 49.498 63.806 53.165 68.32 56.789 C71.133 59.109 73.818 61.531 76.5 64 C80.078 67.293 83.715 70.447 87.5 73.5 C92.312 77.385 96.89 81.475 101.445 85.656 C106.572 90.36 111.805 94.874 117.246 99.211 C118.139 99.923 119.031 100.635 119.951 101.369 C120.627 101.907 121.303 102.445 122 103 C121.985 101.724 121.971 100.449 121.955 99.134 C121.817 87.141 121.685 75.148 121.557 63.154 C121.491 56.988 121.424 50.821 121.352 44.655 C121.283 38.709 121.218 32.763 121.157 26.817 C121.133 24.544 121.107 22.27 121.079 19.996 C121.041 16.823 121.009 13.65 120.978 10.477 C120.965 9.527 120.952 8.576 120.939 7.597 C120.921 5.398 120.955 3.199 121 1 C121.33 0.67 121.66 0.34 122 0 C128.6 0 135.2 0 142 0 C142 48.18 142 96.36 142 146 C137.351 144.838 134.906 142.602 131.438 139.5 C130.182 138.399 128.925 137.298 127.668 136.199 C127.047 135.654 126.426 135.11 125.787 134.548 C123.321 132.411 120.79 130.36 118.25 128.312 C113.872 124.76 109.689 121.04 105.523 117.242 C102.949 114.955 100.307 112.785 97.625 110.625 C93.071 106.944 88.764 103.072 84.481 99.086 C81.248 96.096 77.933 93.262 74.5 90.5 C69.388 86.383 64.574 82.008 59.762 77.551 C55.188 73.327 50.483 69.266 45.75 65.223 C45.455 64.971 45.455 64.971 43.962 63.695 C42.74 62.65 41.517 61.606 40.294 60.563 C35.835 56.749 31.479 52.837 27.184 48.84 C25 47 25 47 20 44 C20 77.66 20 111.32 20 146 C13.4 146 6.8 146 0 146 C0 97.82 0 49.64 0 0 Z " transform="translate(1052,364)"/>
<path fill="#1F6B4E" fill-rule="evenodd" d="M0 0 C7.571 -0.335 15.14 -0.559 22.717 -0.714 C25.284 -0.779 27.85 -0.867 30.415 -0.981 C48.837 -1.777 60.781 0.624 75.849 11.456 C78.846 13.607 81.643 15.448 85 17 C88.234 15.894 89.767 14.3 91.707 11.556 C96.87 4.956 101.568 -0.101 110.191 -1.23 C117.29 -1.658 124.344 -1.313 131.438 -0.938 C133.922 -0.862 136.407 -0.794 138.893 -0.732 C144.933 -0.568 150.966 -0.319 157 0 C156.176 1.577 155.319 3.139 154.377 4.647 C153 7 153 7 151.735 10.11 C149.717 14.005 147.882 16.911 144 19 C134.725 21.087 124.86 20.12 115.438 19.75 C112.781 19.683 110.124 19.635 107.467 19.586 C100.975 19.454 94.488 19.254 88 19 C88.001 19.648 88.002 20.297 88.003 20.965 C88.025 36.721 88.041 52.477 88.052 68.233 C88.057 75.853 88.064 83.472 88.075 91.092 C88.085 97.73 88.092 104.369 88.094 111.008 C88.095 114.525 88.098 118.042 88.106 121.56 C88.114 125.48 88.114 129.4 88.114 133.32 C88.117 134.495 88.121 135.669 88.124 136.879 C88.123 137.941 88.122 139.003 88.12 140.096 C88.121 141.025 88.122 141.953 88.123 142.909 C88 145 88 145 87 146 C80.4 146 73.8 146 67 146 C67 104.09 67 62.18 67 19 C48.85 19 30.7 19 12 19 C0 2 0 2 0 0 Z " transform="translate(1247,364)"/>
<path fill="#1F6B4E" fill-rule="evenodd" d="M0 0 C6.6 0 13.2 0 20 0 C20 48.18 20 96.36 20 146 C13.4 146 6.8 146 0 146 C-1.752 144.248 -1.126 141.799 -1.127 139.42 C-1.13 138.208 -1.133 136.997 -1.136 135.748 C-1.134 134.393 -1.132 133.038 -1.129 131.684 C-1.131 130.266 -1.133 128.849 -1.135 127.432 C-1.139 123.573 -1.137 119.713 -1.134 115.854 C-1.132 111.824 -1.134 107.794 -1.136 103.763 C-1.138 96.994 -1.135 90.225 -1.13 83.456 C-1.125 75.619 -1.127 67.782 -1.132 59.944 C-1.137 53.228 -1.137 46.511 -1.135 39.794 C-1.133 35.777 -1.133 31.76 -1.136 27.743 C-1.139 23.968 -1.137 20.192 -1.131 16.417 C-1.13 15.027 -1.13 13.637 -1.133 12.248 C-1.135 10.359 -1.131 8.469 -1.127 6.58 C-1.127 5.521 -1.126 4.461 -1.126 3.369 C-1 1 -1 1 0 0 Z " transform="translate(1456,364)"/>
<path fill="#C29A74" fill-rule="evenodd" d="M0 0 C18.872 -1.471 18.872 -1.471 23.695 1.863 C25.647 4.859 26.742 7.531 27.359 11.047 C28 13 28 13 29.812 14.761 C32.251 17.257 33.863 19.782 35.652 22.777 C35.989 23.337 36.326 23.896 36.673 24.473 C37.766 26.291 38.852 28.114 39.938 29.938 C41.075 31.834 42.215 33.729 43.354 35.624 C44.122 36.9 44.888 38.176 45.654 39.452 C49.683 46.158 53.816 52.8 57.976 59.426 C60.543 63.538 62.836 67.658 65 72 C65.981 73.403 67 74.782 68.062 76.125 C73.043 82.437 73.043 82.437 72.938 86.25 C71.815 89.543 70.174 92.165 68.27 95.062 C67.218 96.667 66.253 98.328 65.312 100 C64.879 100.66 64.446 101.32 64 102 C63.34 102 62.68 102 62 102 C61.758 101.481 61.515 100.961 61.266 100.426 C59.21 96.148 56.995 92.699 54 89 C53.077 87.516 52.176 86.018 51.289 84.512 C49.113 80.85 46.902 77.215 44.641 73.605 C44.082 72.713 43.524 71.82 42.949 70.9 C41.803 69.071 40.655 67.243 39.504 65.416 C39.227 64.973 39.227 64.973 37.828 62.73 C37.332 61.941 36.836 61.151 36.325 60.337 C35 58 35 58 33.964 55.372 C32.884 52.715 31.308 50.95 29.434 48.809 C26.126 44.636 23.318 39.836 21.074 35.008 C20 33 20 33 18.168 30.723 C15.566 27.455 13.45 24.019 11.312 20.438 C10.91 19.778 10.507 19.119 10.092 18.439 C7.103 13.458 7.103 13.458 6.536 10.938 C6 9 6 9 3.5 6.5 C1.01 4.01 0.609 3.264 0 0 Z " transform="translate(645,364)"/>
</svg>
