<svg xmlns="http://www.w3.org/2000/svg" width="794" height="794" viewBox="231.4 218.4 794.1 794.1">
<path fill="#1F6B4E" fill-rule="evenodd" d="M0 0 C10.43 -0.559 20.856 -0.984 31.297 -1.243 C36.148 -1.368 40.989 -1.537 45.834 -1.811 C77.039 -3.529 77.039 -3.529 85.169 2.254 C90.19 7.773 93.08 13.955 95.7 20.877 C97.845 26.03 100.958 30.51 104.062 35.125 C105.222 36.933 106.377 38.744 107.527 40.559 C108.098 41.453 108.669 42.347 109.257 43.269 C112.217 47.906 115.171 52.547 118.125 57.188 C118.706 58.101 119.288 59.014 119.886 59.955 C125.125 68.19 130.339 76.44 135.545 84.695 C136.991 86.985 138.438 89.274 139.887 91.562 C145.412 100.295 150.906 109.045 156.375 117.812 C162.419 127.499 168.528 137.143 174.668 146.77 C178.287 152.444 181.879 158.136 185.468 163.829 C188.651 168.873 191.85 173.908 195.058 178.937 C200.542 187.535 205.983 196.157 211.375 204.812 C216.526 213.079 221.737 221.304 227 229.5 C233.573 239.736 240.044 250.031 246.477 260.355 C249.671 265.48 252.893 270.587 256.125 275.688 C260.252 282.203 264.326 288.748 268.375 295.312 C274.034 304.483 279.8 313.581 285.598 322.664 C288.748 327.599 291.878 332.547 295 337.5 C298.671 343.322 302.357 349.134 306.059 354.938 C312.22 364.598 318.321 374.294 324.381 384.018 C329.198 391.74 334.071 399.425 338.994 407.08 C340.048 408.726 341.084 410.383 342.102 412.051 C344 415 344 415 346.269 417.889 C355.107 429.703 354.194 442.053 353.949 456.262 C353.937 458.787 353.929 461.311 353.925 463.836 C353.907 469.097 353.861 474.357 353.789 479.618 C353.687 487.033 353.65 494.448 353.623 501.864 C353.6 507.643 353.556 513.421 353.512 519.199 C353.503 520.428 353.495 521.657 353.487 522.923 C353.459 526.389 353.417 529.854 353.37 533.319 C353.363 534.347 353.356 535.375 353.349 536.434 C353.333 537.377 353.317 538.32 353.301 539.292 C353.291 540.11 353.281 540.927 353.271 541.769 C352.973 544.22 352.224 545.872 351 548 C350.685 547.49 350.369 546.979 350.045 546.453 C338.23 527.329 326.365 508.238 314.27 489.289 C309.973 482.551 305.728 475.782 301.5 469 C294.973 458.533 288.371 448.116 281.734 437.718 C278.818 433.148 275.91 428.574 273 424 C271.833 422.167 270.667 420.333 269.5 418.5 C262.5 407.5 262.5 407.5 260.75 404.751 C259.582 402.915 258.414 401.079 257.246 399.243 C254.353 394.698 251.461 390.152 248.57 385.605 C241.723 374.837 234.856 364.081 227.972 353.335 C223.531 346.398 219.105 339.452 214.688 332.5 C210.652 326.149 206.597 319.812 202.5 313.5 C197.804 306.266 193.168 298.995 188.543 291.715 C184.043 284.634 179.525 277.565 175 270.5 C169.416 261.781 163.847 253.053 158.293 244.315 C153.835 237.305 149.357 230.307 144.875 223.312 C140.12 215.891 135.384 208.459 130.688 201 C125.198 192.285 119.611 183.636 114 175 C106.925 164.101 99.903 153.169 92.904 142.221 C88.693 135.636 84.464 129.064 80.207 122.509 C77.587 118.469 74.987 114.415 72.402 110.352 C64.941 98.627 57.374 86.987 49.638 75.442 C44.681 68.041 39.763 60.617 34.867 53.176 C34.237 52.218 33.607 51.261 32.958 50.274 C30.419 46.415 27.881 42.556 25.346 38.695 C18.306 27.97 11.213 17.291 3.9 6.749 C3.387 6.006 2.874 5.263 2.345 4.498 C1.891 3.844 1.436 3.19 0.968 2.516 C0 1 0 1 0 0 Z " transform="translate(292,344)"/>
<path fill="#1F6B4E" fill-rule="evenodd" d="M0 0 C1.237 0.011 2.474 0.022 3.748 0.034 C4.431 0.033 5.114 0.032 5.818 0.031 C8.075 0.035 10.331 0.074 12.587 0.113 C14.152 0.122 15.717 0.129 17.283 0.134 C21.401 0.154 25.519 0.203 29.637 0.258 C33.84 0.309 38.043 0.332 42.245 0.357 C50.491 0.411 58.736 0.496 66.982 0.601 C65.883 2.496 64.782 4.39 63.681 6.284 C63.068 7.339 62.455 8.394 61.824 9.481 C59.174 13.969 56.369 18.348 53.544 22.726 C48.225 31.026 43.009 39.384 37.857 47.789 C32.785 56.06 27.675 64.302 22.48 72.496 C11.793 89.357 1.285 106.328 -9.167 123.336 C-16.658 135.527 -24.167 147.705 -31.831 159.789 C-37.263 168.355 -42.579 176.99 -47.885 185.635 C-52.395 192.979 -56.941 200.299 -61.518 207.601 C-68.129 218.151 -74.66 228.748 -81.178 239.355 C-92.931 258.481 -104.822 277.52 -116.741 296.543 C-123.889 307.957 -130.983 319.402 -138.031 330.879 C-143.174 339.247 -148.367 347.583 -153.58 355.907 C-159.763 365.783 -165.894 375.69 -172.018 385.601 C-180.773 399.77 -189.572 413.911 -198.409 428.029 C-200.613 431.552 -202.816 435.077 -205.018 438.601 C-209.233 434.942 -211.682 430.428 -214.456 425.664 C-215.516 423.87 -216.577 422.077 -217.639 420.285 C-218.19 419.355 -218.74 418.426 -219.307 417.468 C-222.16 412.689 -225.086 407.956 -228.018 403.226 C-228.558 402.354 -229.097 401.481 -229.653 400.582 C-229.909 400.169 -229.909 400.169 -231.206 398.078 C-231.445 397.689 -231.445 397.689 -232.659 395.723 C-233.856 393.854 -235.132 392.093 -236.456 390.312 C-238.018 387.601 -238.018 387.601 -237.792 385.247 C-236.942 382.34 -235.777 380.144 -234.202 377.558 C-233.611 376.581 -233.02 375.603 -232.411 374.596 C-231.766 373.546 -231.121 372.496 -230.456 371.414 C-229.785 370.31 -229.115 369.207 -228.424 368.07 C-226.651 365.152 -224.868 362.241 -223.081 359.332 C-222.053 357.658 -221.026 355.982 -220 354.306 C-215.356 346.728 -210.689 339.164 -206.018 331.601 C-197.807 318.295 -189.622 304.973 -181.518 291.601 C-172.763 277.154 -163.908 262.77 -155.039 248.392 C-147.427 236.05 -139.846 223.69 -132.331 211.289 C-125.808 200.525 -119.223 189.802 -112.579 179.113 C-109.887 174.779 -107.203 170.44 -104.518 166.101 C-101.319 160.931 -98.119 155.761 -94.909 150.597 C-88.416 140.145 -81.999 129.649 -75.622 119.125 C-66.737 104.465 -57.766 89.858 -48.725 75.293 C-42.301 64.944 -35.942 54.558 -29.631 44.14 C-23.5 34.02 -17.318 23.933 -11.107 13.862 C-10.482 12.849 -9.857 11.836 -9.214 10.793 C-8.667 9.908 -8.121 9.023 -7.558 8.111 C-6.018 5.601 -6.018 5.601 -4.845 2.98 C-3.018 0.601 -3.018 0.601 0 0 Z " transform="translate(899.0182342529297,343.3987274169922)"/>
<path fill="#C29A74" fill-rule="evenodd" d="M0 0 C8.196 -0.631 16.382 -1.108 24.596 -1.399 C28.413 -1.539 32.214 -1.728 36.022 -2.037 C56.117 -3.627 56.117 -3.627 65 0 C72.216 6.401 75.977 15.058 79.626 23.83 C81.402 27.929 83.635 31.557 86.125 35.25 C86.91 36.485 87.691 37.722 88.469 38.961 C88.87 39.597 89.271 40.234 89.684 40.89 C92.369 45.195 94.992 49.538 97.625 53.875 C102.658 62.164 107.722 70.433 112.812 78.688 C120.24 90.738 127.593 102.832 134.929 114.938 C138.444 120.735 141.972 126.524 145.5 132.312 C149.466 138.822 153.414 145.342 157.327 151.884 C166.777 167.659 176.337 183.369 186.046 198.987 C190.581 206.294 195.044 213.644 199.5 221 C204.525 229.295 209.573 237.573 214.688 245.812 C215.195 246.635 215.702 247.457 216.225 248.305 C219.106 252.972 222.027 257.611 224.984 262.23 C226.302 264.32 227.62 266.41 228.938 268.5 C229.572 269.474 230.206 270.449 230.86 271.452 C231.431 272.365 232.002 273.278 232.59 274.219 C233.104 275.022 233.618 275.826 234.148 276.654 C235 279 235 279 234.373 281.421 C232.81 284.357 231.171 287.211 229.438 290.051 C229.09 290.623 228.742 291.195 228.384 291.784 C227.26 293.629 226.13 295.471 225 297.312 C224.226 298.576 223.453 299.84 222.679 301.104 C221.527 302.987 220.374 304.868 219.218 306.749 C217.044 310.288 214.891 313.838 212.758 317.402 C211.881 318.852 211.003 320.301 210.125 321.75 C209.74 322.404 209.354 323.058 208.957 323.732 C207.883 325.484 207.883 325.484 206 328 C205.01 328 204.02 328 203 328 C201.521 326.086 201.521 326.086 199.953 323.375 C199.363 322.371 198.773 321.366 198.166 320.332 C197.534 319.232 196.901 318.133 196.25 317 C194.894 314.689 193.536 312.379 192.176 310.07 C191.829 309.479 191.482 308.888 191.125 308.279 C187.673 302.407 184.069 296.636 180.438 290.875 C175.458 282.954 170.539 275 165.688 267 C158.806 255.658 151.79 244.408 144.697 233.198 C144.448 232.804 144.448 232.804 143.188 230.812 C142.685 230.018 142.183 229.224 141.665 228.406 C137.422 221.69 133.237 214.94 129.063 208.182 C124.937 201.505 120.787 194.843 116.625 188.188 C115.998 187.185 115.371 186.182 114.725 185.149 C111.578 180.118 108.428 175.088 105.277 170.059 C98.057 158.528 90.894 146.965 83.776 135.371 C79.356 128.18 74.882 121.025 70.36 113.898 C66.211 107.353 62.13 100.768 58.059 94.175 C53.959 87.539 49.828 80.923 45.688 74.312 C40.354 65.796 35.069 57.251 29.812 48.688 C23.748 38.809 17.601 28.988 11.394 19.199 C9.005 15.429 6.624 11.654 4.25 7.875 C3.819 7.193 3.388 6.511 2.944 5.808 C0 1.115 0 1.115 0 0 Z " transform="translate(436,344)"/>
</svg>
