<svg xmlns="http://www.w3.org/2000/svg" viewBox="330 348 370 170">
  <!-- Fundo verde arredondado -->
  <rect x="330" y="348" width="370" height="170" rx="34" fill="#4F6654"/>
  <!-- Marca / símbolo Moventis (paths do ícone, sem o wordmark) -->
  <path fill="#F4F1EB" d="M572.526 361.678C577.524 361.27 582.554 361.712 587.404 362.985C599.691 366.288 607.32 373.65 613.484 384.474C592.746 382.404 588.911 395.597 582.219 411.639C573.506 433.236 564.924 454.809 555.88 476.269C548.201 494.491 539.568 502.996 519.639 506.472C500.541 507.08 489.017 501.027 478.113 485.402C486.684 486.488 495.483 485.231 501.017 477.771C505.725 471.424 508.118 462.358 511.127 455.015C516.841 441.072 522.419 427.04 528.069 413.069C533.365 401.23 536.898 387.944 543.932 377.046C545.04 375.327 548.008 372.632 549.566 371.306C556.325 365.556 563.842 362.761 572.526 361.678Z"/>
  <path fill="#F4F1EB" d="M447.109 361.677C453.889 361.226 460.683 362.325 466.975 364.89C484.753 372.292 489.656 389.555 496.775 405.842C502.111 417.739 507.275 429.711 512.267 441.757C509.756 448.399 507.178 455.102 504.542 461.689C499.432 474.459 494.189 482.779 479.022 480.405C472.695 478.795 468.95 466.712 466.365 460.888L447.789 417.997C440.725 401.895 435.238 381.313 413.404 384.414C420.625 371.159 432.09 363.246 447.109 361.677Z"/>
  <path fill="#73806A" d="M607.137 389.121C610.053 388.909 612.853 389.379 615.75 389.748C619.789 398.741 623.855 410.555 627.394 419.926C632.109 432.18 636.935 444.391 641.871 456.557C650.79 478.787 656.671 498.739 681.438 506.663C671.517 506.792 661.484 506.73 651.554 506.745C644.402 506.808 637.263 506.842 630.114 506.751C603.77 506.414 597.691 486.069 589.186 465.218L576.073 432.988C581.057 427.196 587.281 404.547 592.954 397.502C597.383 392.001 600.426 390.235 607.137 389.121Z"/>
  <path fill="#73806A" d="M349.055 505.3C373.558 494.087 380.225 467.597 389.346 444.24L403.968 407.312C405.014 404.609 406.241 401.496 407.263 398.778C410.543 390.046 412.177 386.066 422.36 389.514C431.104 392.475 434.68 399.095 438.345 406.919C442.144 415.022 445.311 424.315 449.517 432.074L434.381 468.948C431.132 476.781 428.201 486.148 423.111 492.97C419.482 497.835 414.379 501.908 408.763 504.232C397.491 508.899 364.056 506.444 350.009 506.595L349.055 505.3Z"/>
</svg>
